<?xml version="1.0" encoding="utf-8"?>
<!-- Generator: Adobe Illustrator 16.0.0, SVG Export Plug-In . SVG Version: 6.00 Build 0)  -->
<!DOCTYPE svg PUBLIC "-//W3C//DTD SVG 1.1//EN" "http://www.w3.org/Graphics/SVG/1.1/DTD/svg11.dtd">
<svg version="1.1" id="Layer_1" xmlns="http://www.w3.org/2000/svg" xmlns:xlink="http://www.w3.org/1999/xlink" x="0px" y="0px"
	 width="1141.844px" height="582.1px" viewBox="0 0 1141.844 582.1" enable-background="new 0 0 1141.844 582.1"
	 xml:space="preserve">
<polygon fill="#D41C54" points="1141.844,197.725 1113.428,132.014 1043.574,124.91 1085.606,64.527 1057.19,0 926.36,171.085 "/>
<g>
	<path fill="#FFFFFF" d="M441.491,194.706c-9.704,13.448-23.842,21.325-40.175,24.083c-42.045,7.102-64.722-18.84-69.855-48.245
		c-5.16-29.566,9.004-62.895,49.917-69.805c15.362-2.595,30.9,0.769,44.482,10.284l-11.909,16.149
		c-8.668-6.021-19.268-7.723-29.132-6.057c-27.329,4.616-35.693,26.986-32.336,45.879c3.33,18.731,17.47,36.468,45.446,31.743
		c9.865-1.666,20.34-7.594,26.523-16.289L441.491,194.706z"/>
	<path fill="#FFFFFF" d="M521.279,154.951c3.879,22.964-8.666,44.21-34.54,48.58s-44.54-11.605-48.418-34.568
		c-3.851-22.801,8.829-44.237,34.217-48.525C497.927,116.15,517.429,132.15,521.279,154.951 M458.05,165.631
		c2.049,12.128,11.237,22.219,25.63,19.788c14.392-2.431,19.758-14.98,17.709-27.108c-2.021-11.967-12.397-22.19-25.657-19.95
		C461.5,140.764,456.029,153.664,458.05,165.631"/>
	<path fill="#FFFFFF" d="M596.245,183.206l-7.048-41.722c-2.048-12.128-10.235-20.226-22.849-18.095
		c-12.128,2.048-18.655,13.629-16.606,25.757l6.883,40.752l-19.568,3.305l-13.493-79.886l17.627-2.978l3.124,10.617
		c6.747-9.29,14.15-14.698,24.176-16.392c18.76-3.168,36.176,8.361,40.408,33.426l7.074,41.884L596.245,183.206z"/>
	<path fill="#FFFFFF" d="M687.608,167.775l-7.047-41.722c-2.048-12.128-10.234-20.226-22.85-18.095
		c-12.127,2.048-18.654,13.629-16.605,25.757l6.883,40.752l-19.567,3.305l-13.493-79.886l17.627-2.977l3.124,10.616
		c6.747-9.29,14.149-14.698,24.176-16.392c18.759-3.168,36.175,8.361,40.408,33.426l7.073,41.884L687.608,167.775z"/>
	<path fill="#FFFFFF" d="M731.534,126.593c2.961,9.646,12.732,15.313,26.641,12.965c7.277-1.229,16.353-5.59,20.089-11.045
		l14.717,10.322c-6.934,10.153-19.97,16.679-32.099,18.728c-27.491,4.643-46.691-9.579-51.008-35.129
		c-4.097-24.257,9.448-44.508,35.322-48.878c26.684-4.507,46.125,9.175,48.598,42.521L731.534,126.593z M772.114,102.94
		c-3.042-10.131-12.001-13.94-23.32-12.028c-10.674,1.802-18.532,8.452-19.695,19.293L772.114,102.94z"/>
	<path fill="#FFFFFF" d="M877.187,125.278c-7.688,10.613-16.79,15.809-28.595,17.803c-23.125,3.906-44.718-6.751-49.498-35.051
		c-4.779-28.299,12.115-45.457,35.24-49.363c11.32-1.912,20.599-0.152,30.778,6.944l-10.238,15.201
		c-5.4-3.412-11.577-4.531-17.075-3.602c-13.26,2.239-21.325,13.581-18.975,27.488c2.566,15.201,14.281,21.538,26.571,19.463
		c6.308-1.066,12.313-3.909,16.347-9.58L877.187,125.278z"/>
	<path fill="#FFFFFF" d="M894.154,27.773l3.823,22.64l21.993-3.715l2.869,16.98l-22.156,3.742l5.819,34.445
		c1.282,7.6,6.115,10.609,12.261,9.572c3.073-0.519,6.466-2.091,9.131-4.038l8.339,15.89c-5.277,3.22-9.804,4.982-15.76,6.154
		c-17.193,3.57-30.179-4.383-33.539-24.274l-5.817-34.444l-14.878,2.512l-2.868-16.979l14.878-2.513l-3.469-20.537L894.154,27.773z"
		/>
</g>
<g>
	<path fill="#FFFFFF" d="M307.093,383.758l-8.66-51.281c-2.133-12.625-10.673-22.971-23.687-20.772
		c-12.82,2.165-18.461,14.905-16.328,27.531l8.661,51.28l-23.698,4.002l-16.206-95.957l21.949-3.706l3.717,11.358
		c3.41-10.564,13.892-15.932,23.022-17.474c11.459-1.935,23.708,0.791,31.376,13.081c6.251-15.04,16.667-20.795,29.099-22.895
		c27.193-4.593,43.418,9.849,48.274,38.597l8.726,51.669l-23.698,4.003l-8.727-51.67c-2.132-12.625-9.18-22.423-22.001-20.259
		c-12.82,2.166-18.914,14.582-16.782,27.209l8.661,51.281L307.093,383.758z"/>
	<path fill="#FFFFFF" d="M426.112,323.1c3.555,11.586,15.294,18.395,31.999,15.573c8.74-1.478,19.643-6.714,24.131-13.267
		l17.676,12.398c-8.329,12.195-23.986,20.034-38.554,22.494c-33.022,5.578-56.085-11.505-61.269-42.195
		c-4.921-29.137,11.349-53.46,42.428-58.709c32.051-5.413,55.404,11.02,58.373,51.075L426.112,323.1z M474.856,294.69
		c-3.653-12.169-14.416-16.746-28.013-14.449c-12.82,2.165-22.259,10.152-23.656,23.175L474.856,294.69z"/>
	<path fill="#FFFFFF" d="M597.497,195.061l22.931,135.775l-22.144,3.74l-3.785-12.945c-5.445,12.707-16.639,18.593-28.293,20.563
		c-28.165,4.756-52.487-10.316-57.801-41.783c-5.577-33.021,12.32-53.625,40.291-58.35c10.1-1.706,26.752,1.076,34.059,10.031
		l-8.956-53.029L597.497,195.061z M532.102,296.409c2.821,16.705,16.801,26.131,31.951,23.572
		c14.957-2.527,25.94-15.57,23.021-32.857c-2.821-16.705-17.544-25.806-32.5-23.28C539.42,266.403,529.181,279.12,532.102,296.409"
		/>
	<path fill="#FFFFFF" d="M641.272,201.052c3.116,18.454-24.855,23.178-27.972,4.725
		C610.184,187.323,638.155,182.599,641.272,201.052 M619.932,232.027l16.238,96.151l23.699-4.002l-16.24-96.151L619.932,232.027z"/>
	<path fill="#FFFFFF" d="M736.149,212.799l22.726-3.838l16.174,95.762l-22.339,3.773l-3.527-13.789
		c-3.535,12.184-17.574,20.149-28.225,22.148c-28.327,4.982-52.257-8.956-57.934-42.56c-5.576-33.021,13.453-54.016,41.457-58.546
		c12.82-2.165,26.074,1.79,33.121,10.389L736.149,212.799z M686.723,270.294c3.082,18.259,17.547,27.003,33.279,24.347
		c37.295-6.299,27.486-64.378-9.809-58.079C694.459,239.219,683.638,252.035,686.723,270.294"/>
</g>
<g>
	<path fill="#FFFFFF" d="M23.698,442.321l8.956,53.027c3.96-10.855,18.776-18.952,28.876-20.658
		c27.971-4.725,51.642,8.857,57.219,41.879c5.315,31.469-12.708,53.691-40.874,58.449c-11.654,1.969-24.159,0.084-33.477-10.129
		l0.678,13.471l-22.144,3.74L0,446.324L23.698,442.321z M40.08,529.856c2.92,17.289,17.577,26,32.534,23.475
		c15.152-2.559,25.259-16.053,22.438-32.758c-2.92-17.287-16.768-25.938-31.919-23.379C48.177,499.719,37.259,513.151,40.08,529.856
		"/>
	<path fill="#FFFFFF" d="M145.265,462.945l3.618,10.776c5.38-13.096,14.991-16.517,24.703-18.158
		c9.908-1.672,20.081,0.605,26.211,4.965l-7.206,22.395c-5.545-3.26-10.373-4.643-18.142-3.33
		c-12.432,2.101-22.778,10.639-19.792,28.314l8.53,50.506l-23.698,4.002l-16.173-95.763L145.265,462.945z"/>
	<path fill="#FFFFFF" d="M278.7,440.409l22.726-3.838l16.174,95.762l-22.339,3.773l-3.527-13.789
		c-3.536,12.186-17.574,20.15-28.225,22.148c-28.327,4.984-52.257-8.955-57.933-42.561c-5.577-33.02,13.453-54.016,41.457-58.545
		c12.82-2.165,26.074,1.79,33.121,10.389L278.7,440.409z M229.274,497.903c3.083,18.26,17.547,27.006,33.28,24.348
		c37.295-6.299,27.487-64.377-9.808-58.078C237.011,466.829,226.19,479.645,229.274,497.903"/>
	<path fill="#FFFFFF" d="M403.278,517.862l-8.464-50.115c-2.461-14.568-12.295-24.295-27.445-21.736
		c-14.569,2.461-22.408,16.371-19.947,30.939l8.266,48.949l-23.503,3.971l-16.207-95.957l21.173-3.576l3.752,12.752
		c8.104-11.158,16.997-17.654,29.04-19.688c22.532-3.806,43.451,10.043,48.536,40.149l8.497,50.311L403.278,517.862z"/>
	<path fill="#FFFFFF" d="M519.029,358.663l22.931,135.777l-22.143,3.738l-3.786-12.945c-5.445,12.707-16.638,18.594-28.293,20.561
		c-28.165,4.758-52.487-10.313-57.801-41.781c-5.577-33.021,12.32-53.625,40.291-58.35c10.1-1.705,26.753,1.076,34.059,10.031
		l-8.956-53.029L519.029,358.663z M453.634,460.01c2.821,16.705,16.801,26.131,31.951,23.572
		c14.957-2.526,25.941-15.569,23.021-32.856c-2.822-16.705-17.545-25.806-32.501-23.28
		C460.953,430.005,450.713,442.722,453.634,460.01"/>
</g>
<g>
	<g>
	</g>
	<g>
		<path fill="#FBDF0F" d="M574.018,353.747l3.877,21.324l-3.478,0.632l-0.621-2.03c-0.832,2.012-2.582,2.959-4.413,3.292
			c-4.423,0.804-8.28-1.521-9.179-6.462c-0.943-5.186,1.833-8.463,6.226-9.262c1.587-0.289,4.213,0.116,5.38,1.512l-1.514-8.328
			L574.018,353.747z M563.926,369.827c0.477,2.623,2.696,4.079,5.075,3.646c2.349-0.427,4.052-2.502,3.559-5.217
			c-0.478-2.623-2.813-4.025-5.162-3.6C565.019,365.09,563.432,367.111,563.926,369.827z"/>
	</g>
	<g>
		<path fill="#FBDF0F" d="M581.978,354.412c0.526,2.897-3.866,3.696-4.394,0.799C577.058,352.312,581.451,351.514,581.978,354.412z
			 M578.68,359.329l2.745,15.1l3.722-0.676l-2.745-15.101L578.68,359.329z"/>
	</g>
	<g>
		<path fill="#FBDF0F" d="M597.665,354.325l3.123,1.575l-1.29,2.44c1.397,1.101,2.097,2.518,2.396,4.166
			c0.338,1.859,0.113,4.611-2.152,6.189c2.729,0.795,3.667,2.484,4.016,4.406c0.755,4.148-1.952,7.288-6.314,8.081
			c-4.362,0.794-8.109-1.267-8.847-5.324l3.691-0.671c0.354,1.952,2.388,2.906,4.523,2.518c2.135-0.388,3.602-1.852,3.225-3.926
			c-0.377-2.075-2.502-2.666-4.361-2.327c-4.699,0.854-8.148-1.481-9.003-6.179c-0.854-4.698,2.03-8.248,6.24-9.014
			c1.189-0.217,2.438-0.285,3.603,0.227L597.665,354.325z M590.363,364.602c0.477,2.623,2.529,3.857,4.695,3.464
			c2.135-0.388,3.616-2.296,3.146-4.889c-0.472-2.594-2.541-3.919-4.676-3.531C591.362,360.04,589.885,361.979,590.363,364.602z"/>
	</g>
	<g>
		<path fill="#FBDF0F" d="M606.584,349.899c0.527,2.897-3.865,3.696-4.393,0.799C601.666,347.799,606.058,347,606.584,349.899z
			 M603.287,354.816l2.746,15.101l3.722-0.678l-2.745-15.1L603.287,354.816z"/>
	</g>
	<g>
		<path fill="#FBDF0F" d="M625.945,364.31c-1.428,2.024-3.137,3.028-5.363,3.433c-4.362,0.793-8.47-1.17-9.44-6.508
			c-0.971-5.34,2.183-8.623,6.546-9.416c2.135-0.388,3.894-0.076,5.834,1.24l-1.899,2.897c-1.028-0.632-2.199-0.829-3.236-0.64
			c-2.501,0.454-3.999,2.617-3.521,5.24c0.521,2.869,2.751,4.039,5.069,3.617c1.189-0.217,2.318-0.769,3.067-1.85L625.945,364.31z"
			/>
	</g>
	<g>
		<path fill="#FBDF0F" d="M642.088,355.647c0.788,4.332-1.533,8.378-6.414,9.266c-4.881,0.887-8.447-2.088-9.234-6.42
			c-0.782-4.301,1.563-8.383,6.353-9.254C637.583,348.368,641.306,351.346,642.088,355.647z M630.161,357.816
			c0.416,2.288,2.178,4.174,4.893,3.681c2.715-0.494,3.699-2.879,3.283-5.167c-0.411-2.257-2.396-4.165-4.897-3.71
			C630.754,353.107,629.75,355.559,630.161,357.816z"/>
	</g>
	<g>
		<path fill="#FBDF0F" d="M657.453,360.567l-1.431-7.871c-0.416-2.288-1.983-3.799-4.362-3.366c-2.288,0.415-3.494,2.62-3.078,4.908
			l1.397,7.688l-3.69,0.671l-2.74-15.07l3.324-0.604l0.616,1.999c1.253-1.772,2.64-2.813,4.531-3.156
			c3.538-0.644,6.858,1.495,7.719,6.224l1.437,7.9L657.453,360.567z"/>
	</g>
	<g>
	</g>
	<g>
		<path fill="#FBDF0F" d="M668.322,342.967c-0.79-4.521,3.126-7.25,7.061-7.965c4.271-0.777,9.224,0.119,10.145,5.184
			c0.987,5.43-2.912,7.209-7.396,8.025c-1.771,0.321-4.554,1.301-4.133,3.619l0.333,1.83l13.27-2.412l0.683,3.752l-17.297,3.145
			c-0.338-1.861-0.677-3.722-1.021-5.613c-0.893-4.912,3.294-7.186,7.505-7.951c1.616-0.294,4.525-1.105,4.076-3.577
			c-0.422-2.318-2.726-3.034-5.472-2.534c-2.104,0.383-4.077,1.844-3.758,3.771L668.322,342.967z"/>
	</g>
	<g>
		<path fill="#FBDF0F" d="M688.852,342.26c-2.318-12.752,16.418-16.126,18.73-3.405l0.561,3.081
			c2.313,12.721-16.412,16.156-18.73,3.405L688.852,342.26z M693.409,344.615c1.409,7.749,12.147,5.796,10.738-1.952l-0.561-3.081
			c-1.387-7.627-12.141-5.766-10.737,1.952L693.409,344.615z"/>
	</g>
	<g>
		<path fill="#FBDF0F" d="M711.343,347.278l3.202-0.582l-2.596-14.276l-3.324,0.604l-0.666-3.66l7.321-1.332l3.262,17.938
			l2.958-0.537l0.621,3.416l-10.157,1.847L711.343,347.278z"/>
	</g>
	<g>
		<path fill="#FBDF0F" d="M725.542,348.226l5.541-19.097l-10.402,1.892l-0.699-3.844l15.68-2.851l0.603,2.097l-6.085,20.96
			L725.542,348.226z"/>
	</g>
	<g>
		<path fill="#FBDF0F" d="M753.912,321.042l3.877,21.322l-3.478,0.633l-0.621-2.03c-0.832,2.011-2.583,2.959-4.413,3.292
			c-4.423,0.804-8.28-1.52-9.179-6.461c-0.943-5.188,1.833-8.465,6.226-9.264c1.586-0.288,4.213,0.116,5.38,1.512l-1.514-8.328
			L753.912,321.042z M743.82,337.121c0.477,2.623,2.695,4.079,5.074,3.646c2.35-0.427,4.052-2.501,3.559-5.216
			c-0.478-2.625-2.812-4.027-5.161-3.601C744.913,332.383,743.326,334.405,743.82,337.121z"/>
	</g>
	<g>
		<path fill="#FBDF0F" d="M761.934,321.653c0.527,2.898-3.865,3.697-4.393,0.799C757.015,319.553,761.408,318.754,761.934,321.653z
			 M758.636,326.569l2.746,15.102l3.722-0.678l-2.745-15.1L758.636,326.569z"/>
	</g>
	<g>
		<path fill="#FBDF0F" d="M777.556,321.616l3.123,1.576l-1.289,2.439c1.397,1.102,2.096,2.518,2.395,4.166
			c0.339,1.861,0.114,4.611-2.151,6.189c2.729,0.796,3.666,2.485,4.016,4.406c0.755,4.149-1.952,7.289-6.314,8.082
			s-8.109-1.268-8.847-5.324l3.691-0.672c0.354,1.952,2.388,2.906,4.523,2.518c2.135-0.388,3.603-1.852,3.226-3.926
			s-2.502-2.666-4.363-2.327c-4.697,0.854-8.148-1.481-9.002-6.179c-0.854-4.698,2.03-8.248,6.24-9.014
			c1.189-0.217,2.438-0.285,3.602,0.229L777.556,321.616z M770.254,331.893c0.477,2.623,2.529,3.857,4.695,3.465
			c2.135-0.389,3.616-2.297,3.145-4.89c-0.471-2.593-2.54-3.919-4.676-3.53C771.252,327.333,769.777,329.27,770.254,331.893z"/>
	</g>
	<g>
		<path fill="#FBDF0F" d="M786.393,317.246c0.527,2.898-3.865,3.696-4.393,0.798C781.474,315.147,785.867,314.348,786.393,317.246z
			 M783.096,322.163l2.745,15.101l3.722-0.677l-2.746-15.101L783.096,322.163z"/>
	</g>
	<g>
		<path fill="#FBDF0F" d="M795.021,315.637l0.776,4.27l4.148-0.754l0.583,3.203l-4.179,0.76l1.181,6.498
			c0.261,1.434,1.182,1.991,2.341,1.78c0.579-0.105,1.218-0.41,1.717-0.784l1.614,2.984c-0.99,0.619-1.842,0.965-2.966,1.199
			c-3.241,0.716-5.714-0.756-6.396-4.509l-1.182-6.497l-2.807,0.51l-0.583-3.203l2.808-0.511l-0.704-3.874L795.021,315.637z"/>
	</g>
	<g>
		<path fill="#FBDF0F" d="M814.902,316.443l3.569-0.649l2.734,15.039l-3.508,0.639l-0.583-2.163
			c-0.532,1.925-2.727,3.206-4.398,3.542c-4.447,0.84-8.241-1.307-9.201-6.585c-0.942-5.186,2.011-8.527,6.41-9.295
			c2.012-0.366,4.105,0.229,5.231,1.569L814.902,316.443z M807.237,325.588c0.521,2.868,2.814,4.217,5.286,3.768
			c5.857-1.065,4.199-10.188-1.658-9.122C808.393,320.683,806.715,322.722,807.237,325.588z"/>
	</g>
	<g>
		<path fill="#FBDF0F" d="M824.525,308.161l3.877,21.323l-3.691,0.671l-3.878-21.323L824.525,308.161z"/>
	</g>
	<g>
	</g>
	<g>
		<path fill="#FBDF0F" d="M850.912,323.446c-1.428,2.025-3.137,3.029-5.363,3.434c-4.362,0.794-8.47-1.17-9.44-6.509
			c-0.971-5.338,2.183-8.622,6.546-9.415c2.135-0.389,3.894-0.078,5.834,1.24l-1.898,2.898c-1.029-0.633-2.2-0.83-3.237-0.641
			c-2.501,0.454-3.999,2.617-3.521,5.24c0.521,2.867,2.751,4.038,5.069,3.617c1.189-0.217,2.317-0.769,3.067-1.851L850.912,323.446z
			"/>
	</g>
	<g>
		<path fill="#FBDF0F" d="M867.164,314.684c0.788,4.331-1.532,8.377-6.413,9.265s-8.448-2.089-9.235-6.42
			c-0.782-4.302,1.563-8.384,6.353-9.255C862.658,307.403,866.381,310.381,867.164,314.684z M855.236,316.852
			c0.416,2.288,2.178,4.174,4.893,3.68c2.715-0.493,3.699-2.879,3.283-5.166c-0.41-2.258-2.396-4.166-4.897-3.711
			C855.831,312.143,854.826,314.594,855.236,316.852z"/>
	</g>
	<g>
		<path fill="#FBDF0F" d="M882.472,319.653l-1.432-7.87c-0.416-2.288-1.981-3.8-4.362-3.366c-2.287,0.416-3.494,2.62-3.078,4.908
			l1.397,7.688l-3.69,0.672l-2.74-15.07l3.326-0.605l0.615,2c1.253-1.771,2.64-2.812,4.531-3.156
			c3.539-0.643,6.858,1.495,7.718,6.223l1.437,7.902L882.472,319.653z"/>
	</g>
	<g>
		<path fill="#FBDF0F" d="M890.865,318.168l-2.103-11.562l-2.806,0.51l-0.594-3.264l2.807-0.511l-0.184-1.007
			c-0.732-4.026,1.645-6.381,4.665-6.93c1.312-0.238,2.763-0.062,4.127,0.511l-0.868,3.025c-0.887-0.375-1.67-0.517-2.433-0.378
			c-1.281,0.233-2.103,1.265-1.77,3.095l0.183,1.008l4.424-0.805l0.594,3.264l-4.424,0.805l2.103,11.563L890.865,318.168z"/>
	</g>
	<g>
		<path fill="#FBDF0F" d="M904.287,309.331c0.582,1.817,2.443,2.865,5.066,2.389c1.373-0.25,3.078-1.096,3.771-2.135l2.808,1.915
			c-1.288,1.937-3.736,3.2-6.024,3.616c-5.187,0.943-8.849-1.699-9.726-6.52c-0.831-4.576,1.681-8.437,6.562-9.324
			c5.033-0.914,8.741,1.625,9.287,7.924L904.287,309.331z M911.902,304.764c-0.6-1.908-2.301-2.607-4.438-2.219
			c-2.013,0.365-3.483,1.641-3.677,3.693L911.902,304.764z"/>
	</g>
	<g>
		<path fill="#FBDF0F" d="M921.033,297.147l0.591,1.688c0.82-2.071,2.326-2.629,3.852-2.906c1.556-0.282,3.162,0.056,4.135,0.729
			l-1.089,3.538c-0.88-0.501-1.643-0.71-2.861-0.487c-1.953,0.354-3.564,1.719-3.061,4.495l1.442,7.932l-3.722,0.677l-2.734-15.039
			L921.033,297.147z"/>
	</g>
	<g>
		<path fill="#FBDF0F" d="M935.931,303.577c0.583,1.817,2.443,2.865,5.066,2.389c1.373-0.25,3.078-1.096,3.771-2.136l2.808,1.916
			c-1.286,1.937-3.736,3.2-6.024,3.616c-5.186,0.943-8.85-1.699-9.727-6.52c-0.832-4.576,1.682-8.436,6.563-9.323
			c5.034-0.915,8.742,1.625,9.288,7.923L935.931,303.577z M943.546,299.01c-0.599-1.908-2.303-2.607-4.438-2.219
			c-2.014,0.365-3.483,1.641-3.677,3.693L943.546,299.01z"/>
	</g>
	<g>
		<path fill="#FBDF0F" d="M963.099,304.993l-1.431-7.87c-0.416-2.288-1.983-3.8-4.362-3.366c-2.287,0.415-3.493,2.621-3.077,4.908
			l1.397,7.688l-3.691,0.671l-2.74-15.069l3.324-0.605l0.616,2c1.254-1.772,2.642-2.813,4.532-3.156
			c3.539-0.644,6.858,1.495,7.718,6.224l1.437,7.901L963.099,304.993z"/>
	</g>
	<g>
		<path fill="#FBDF0F" d="M982.805,299.466c-1.429,2.024-3.136,3.028-5.363,3.434c-4.362,0.794-8.47-1.171-9.44-6.509
			c-0.971-5.338,2.184-8.623,6.546-9.416c2.135-0.388,3.894-0.078,5.834,1.24l-1.9,2.898c-1.027-0.633-2.197-0.83-3.235-0.641
			c-2.501,0.455-3.998,2.617-3.521,5.242c0.521,2.867,2.751,4.037,5.069,3.615c1.189-0.217,2.317-0.768,3.067-1.85L982.805,299.466z
			"/>
	</g>
	<g>
		<path fill="#FBDF0F" d="M987.779,294.151c0.582,1.815,2.443,2.863,5.066,2.387c1.373-0.25,3.078-1.096,3.771-2.135l2.808,1.916
			c-1.287,1.936-3.736,3.2-6.024,3.616c-5.187,0.942-8.85-1.7-9.726-6.521c-0.832-4.576,1.681-8.436,6.562-9.323
			c5.033-0.915,8.741,1.625,9.288,7.924L987.779,294.151z M995.394,289.583c-0.599-1.908-2.302-2.607-4.437-2.219
			c-2.015,0.366-3.484,1.642-3.679,3.694L995.394,289.583z"/>
	</g>
</g>
<g>
</g>
<g>
</g>
<g>
</g>
<g>
</g>
<g>
</g>
<g>
</g>
</svg>
