<?xml version="1.0" encoding="utf-8"?>
<!-- Generator: Adobe Illustrator 16.0.0, SVG Export Plug-In . SVG Version: 6.00 Build 0)  -->
<!DOCTYPE svg PUBLIC "-//W3C//DTD SVG 1.1//EN" "http://www.w3.org/Graphics/SVG/1.1/DTD/svg11.dtd">
<svg version="1.1" id="Layer_1" xmlns="http://www.w3.org/2000/svg" xmlns:xlink="http://www.w3.org/1999/xlink" x="0px" y="0px"
	 width="708.092px" height="522.63px" viewBox="0 0 708.092 522.63" enable-background="new 0 0 708.092 522.63"
	 xml:space="preserve">
<polygon fill="#D41C55" points="708.092,197.725 679.676,132.014 609.82,124.91 651.853,64.527 623.437,0 492.606,171.085 "/>
<rect x="40.745" y="87.607" transform="matrix(0.3946 -0.9189 0.9189 0.3946 -24.6318 162.0282)" fill="#383938" width="139.799" height="24.199"/>
<path fill="#383938" d="M144.396,146.091c-3.344,11.842,2.922,24.111,18.726,30.9c8.269,3.551,20.454,5.085,27.889,1.965
	l8.255,20.308c-13.818,5.818-31.491,3.887-45.273-2.033c-31.24-13.419-41.514-40.688-29.042-69.723
	c11.841-27.565,39.11-39.36,68.513-26.73c30.322,13.023,41.199,39.898,21.683,75.703L144.396,146.091z M201.62,148.685
	c3.581-12.393-3.081-22.22-15.945-27.745c-12.128-5.21-24.577-3.592-32.938,6.748L201.62,148.685z"/>
<path fill="#383938" d="M322.562,159.49l21.5,9.236l-38.914,90.597l-21.133-9.078l4.581-13.705
	c-9.725,8.448-26.084,7.517-36.271,3.358c-26.909-11.339-39.652-36.404-25.996-68.196c13.419-31.241,41.21-38.677,67.596-27.126
	c12.128,5.21,21.258,15.879,22.535,27.095L322.562,159.49z M248.749,181.333c-7.42,17.274,0.104,32.696,14.99,39.09
	c35.283,15.155,58.884-39.791,23.602-54.947C272.454,159.082,256.167,164.058,248.749,181.333"/>
<path fill="#383938" d="M379.163,183.797l-2.846,11.186c11.798-8.21,21.881-5.838,31.069-1.892
	c9.372,4.025,16.799,11.569,19.629,18.662l-18.475,15.139c-2.937-5.833-6.295-9.67-13.646-12.828
	c-11.76-5.052-25.286-3.46-32.469,13.261l-20.524,47.781l-22.419-9.63l38.914-90.598L379.163,183.797z"/>
<path fill="#383938" d="M461.338,326.406l20.366-47.413c5.919-13.783,2.885-27.494-11.449-33.651
	c-13.782-5.92-28.128,1.632-34.048,15.415l-19.891,46.309l-22.237-9.551l38.994-90.782l20.032,8.604l-3.82,12.944
	c13.056-5.058,24.218-5.706,35.612-0.811c21.316,9.156,31.54,32.485,19.304,60.97l-20.443,47.596L461.338,326.406z"/>
<path fill="#383938" d="M77.051,310.009l23.581-50.635c5.805-12.467,4.554-26.82-8.297-32.804
	c-12.658-5.895-25.409,1.937-31.215,14.405L37.54,291.61l-23.4-10.897l44.124-94.75l21.674,10.093l-3.633,12.312
	c9.453-7.267,21.993-5.629,31.008-1.43c11.316,5.269,20.488,15.142,19.785,30.686c14.692-9.496,27.411-8.241,39.686-2.524
	c26.852,12.505,32.405,35.162,19.185,63.549l-23.758,51.018l-23.4-10.895l23.759-51.021c5.806-12.468,5.54-25.428-7.119-31.323
	c-12.659-5.896-25.614,1.376-31.42,13.843l-23.58,50.635L77.051,310.009z"/>
<path fill="#383938" d="M297.158,355.099c-12.685,27.233-41.562,40.629-72.25,26.337c-30.688-14.291-38.829-44.923-26.145-72.158
	c12.593-27.044,41.751-40.541,71.864-26.517C300.741,296.784,309.751,328.055,297.158,355.099 M222.163,320.174
	c-6.699,14.386-4.32,31.831,12.75,39.781c17.07,7.948,31.954-1.457,38.652-15.844c6.609-14.193,3.067-32.646-12.661-39.971
	C244.027,296.279,228.772,305.982,222.163,320.174"/>
<path fill="#383938" d="M352.186,323.08l-3.364,11.736c12.736-8.306,23.322-5.477,32.913-1.011
	c9.781,4.555,17.394,12.767,20.159,20.358l-20.016,15.418c-2.92-6.262-6.348-10.426-14.021-13.997
	c-12.275-5.717-26.628-4.466-34.757,12.987l-23.223,49.868l-23.4-10.896l44.035-94.559L352.186,323.08z"/>
<path fill="#383938" d="M403.022,414.439c-3.915,12.413,2.321,25.586,18.816,33.267c8.63,4.021,21.465,6.03,29.426,2.968
	l8.082,21.736c-14.796,5.712-33.421,3.108-47.806-3.592c-32.607-15.183-42.601-44.345-28.488-74.649
	c13.398-28.77,42.608-40.373,73.296-26.082c31.647,14.737,42.292,43.501,20.518,80.739L403.022,414.439z M463.446,419.003
	c4.184-12.989-2.55-23.593-15.977-29.846c-12.658-5.894-25.873-4.58-35.043,6.086L463.446,419.003z"/>
<path fill="#383938" d="M504.629,494.434c-8.485,18.222-36.105,5.359-27.619-12.861
	C485.495,463.351,513.114,476.213,504.629,494.434"/>
<path fill="#383938" d="M546.24,513.813c-8.484,18.222-36.104,5.359-27.619-12.862S554.726,495.591,546.24,513.813"/>
<path fill="#5D2368" d="M15.942,304.829l3.288,1.532l-6.454,13.854l-3.231-1.506l0.774-2.102c-1.547,1.264-4.077,1.043-5.635,0.352
	c-4.116-1.884-5.973-5.827-3.708-10.689c2.224-4.776,6.565-5.798,10.598-3.885c1.855,0.864,3.22,2.559,3.365,4.303L15.942,304.829z
	 M4.404,307.868c-1.23,2.642-0.137,5.065,2.139,6.126c5.396,2.514,9.309-5.89,3.914-8.402C8.18,304.531,5.634,305.226,4.404,307.868
	"/>
<path fill="#5D2368" d="M28.247,303.514l-3.573,7.672c1.483-1.053,4.125-0.78,5.587-0.099c4.046,1.884,5.901,5.758,3.676,10.535
	c-2.121,4.553-6.441,5.824-10.515,3.926c-1.686-0.786-3.138-2.147-3.434-4.302l-1.115,1.805l-3.204-1.491l9.15-19.642
	L28.247,303.514z M22.556,316.321c-1.165,2.501-0.043,4.938,2.12,5.946c2.192,1.021,4.706,0.175,5.832-2.242
	c1.165-2.501,0.143-4.858-2.049-5.879C26.295,313.137,23.681,313.904,22.556,316.321"/>
<path fill="#5D2368" d="M50.503,329.372c-1.859,3.99-6.089,5.952-10.586,3.858c-4.495-2.095-5.688-6.582-3.829-10.574
	c1.845-3.962,6.118-5.938,10.53-3.883C51.03,320.827,52.349,325.409,50.503,329.372 M39.516,324.254
	c-0.981,2.107-0.633,4.664,1.868,5.828c2.5,1.165,4.681-0.213,5.663-2.319c0.969-2.08,0.449-4.783-1.854-5.858
	C42.72,320.753,40.485,322.175,39.516,324.254"/>
<path fill="#5D2368" d="M59.899,325.301l-3.377,7.25c-0.981,2.107-0.576,4.246,1.616,5.268c2.108,0.981,4.365-0.121,5.347-2.229
	l3.299-7.081l3.4,1.584l-6.467,13.883l-3.062-1.427l0.652-1.987c-2.088,0.736-3.723,0.797-5.662-0.108
	c-3.315-1.545-4.567-5.171-2.564-9.47l3.39-7.278L59.899,325.301z"/>
<path fill="#5D2368" d="M80.149,329.977l-1.832,3.936l3.821,1.78l-1.374,2.95l-3.85-1.794l-2.788,5.985
	c-0.615,1.322-0.185,2.308,0.882,2.805c0.534,0.25,1.231,0.369,1.854,0.353l-0.405,3.366c-1.167-0.064-2.06-0.275-3.114-0.731
	c-3.059-1.289-4.227-3.92-2.617-7.375l2.788-5.986l-2.585-1.204l1.374-2.95l2.585,1.205l1.663-3.569L80.149,329.977z"/>
<path fill="#5D2368" d="M108.05,340.681l-9.15,19.645l-3.203-1.493l0.665-2.017c-1.84,1.16-3.816,0.925-5.502,0.14
	c-4.075-1.899-5.881-6.024-3.76-10.576c2.225-4.776,6.384-5.848,10.429-3.963c1.462,0.68,3.372,2.527,3.519,4.339l3.573-7.671
	L108.05,340.681z M90.528,347.978c-1.126,2.416-0.156,4.887,2.036,5.906c2.164,1.009,4.751,0.298,5.917-2.203
	c1.125-2.416,0.029-4.91-2.134-5.919C94.155,344.743,91.693,345.475,90.528,347.978"/>
<path fill="#5D2368" d="M112.067,349.527l-6.48,13.908l-3.428-1.596l6.48-13.911L112.067,349.527z M110.124,343.935
	c-1.244,2.671,2.803,4.556,4.046,1.886C115.414,343.152,111.366,341.266,110.124,343.935"/>
<path fill="#5D2368" d="M126.938,354.811l1.639,3.088l-2.461,1.248c0.505,1.705,0.257,3.267-0.45,4.784
	c-0.799,1.713-2.571,3.829-5.331,3.81c1.767,2.225,1.557,4.145,0.732,5.915c-1.78,3.821-5.802,4.819-9.82,2.948
	c-4.019-1.872-5.887-5.717-4.146-9.454l3.4,1.584c-0.837,1.799,0.271,3.75,2.238,4.666c1.967,0.917,4.01,0.569,4.9-1.342
	c0.89-1.911-0.502-3.619-2.217-4.418c-4.327-2.015-5.795-5.914-3.778-10.241c2.015-4.328,6.419-5.56,10.297-3.754
	c1.096,0.513,2.154,1.176,2.809,2.268L126.938,354.811z M115.044,358.983c-1.125,2.415-0.163,4.608,1.832,5.537
	c1.967,0.917,4.278,0.215,5.39-2.173c1.113-2.389,0.19-4.666-1.777-5.582C118.493,355.836,116.17,356.566,115.044,358.983"/>
<path fill="#5D2368" d="M134.675,360.056l-6.48,13.908l-3.428-1.597l6.48-13.91L134.675,360.056z M132.731,354.464
	c-1.244,2.671,2.803,4.556,4.046,1.886C138.021,353.681,133.974,351.794,132.731,354.464"/>
<path fill="#5D2368" d="M144.273,379.299c-2.335,0.827-4.309,0.66-6.36-0.296c-4.019-1.872-6.237-5.847-3.946-10.764
	c2.29-4.919,6.76-5.777,10.779-3.905c1.967,0.916,3.222,2.187,4.046,4.382l-3.224,1.269c-0.475-1.111-1.316-1.947-2.271-2.393
	c-2.305-1.072-4.776-0.173-5.902,2.244c-1.23,2.643-0.087,4.884,2.049,5.879c1.096,0.512,2.336,0.712,3.572,0.263L144.273,379.299z"
	/>
<path fill="#5D2368" d="M162.508,381.534c-1.859,3.99-6.09,5.951-10.587,3.857c-4.495-2.094-5.688-6.583-3.829-10.573
	c1.846-3.963,6.118-5.938,10.53-3.884C163.034,372.989,164.353,377.572,162.508,381.534 M151.52,376.415
	c-0.982,2.107-0.633,4.664,1.868,5.829s4.682-0.214,5.663-2.32c0.969-2.079,0.45-4.783-1.854-5.857
	C154.724,372.915,152.489,374.336,151.52,376.415"/>
<path fill="#5D2368" d="M172.151,394.436l3.377-7.25c0.982-2.107,0.576-4.245-1.616-5.267c-2.107-0.981-4.365,0.121-5.346,2.229
	l-3.3,7.08l-3.399-1.584l6.466-13.882l3.063,1.428l-0.653,1.987c2.047-0.723,3.779-0.771,5.521,0.041
	c3.26,1.52,4.735,5.182,2.706,9.536l-3.39,7.278L172.151,394.436z"/>
<path fill="#0B9BB6" d="M193.984,404.603l3.456-7.418c0.851-1.825,0.668-3.929-1.215-4.807c-1.855-0.863-3.723,0.285-4.574,2.111
	l-3.456,7.419l-3.428-1.599l6.467-13.881l3.175,1.479l-0.532,1.803c1.384-1.064,3.222-0.824,4.543-0.209
	c1.658,0.773,3.001,2.22,2.896,4.497c2.153-1.392,4.018-1.208,5.815-0.37c3.935,1.834,4.748,5.153,2.81,9.312l-3.48,7.475
	l-3.428-1.597l3.481-7.475c0.851-1.827,0.812-3.725-1.042-4.59c-1.855-0.864-3.753,0.202-4.604,2.028l-3.456,7.419L193.984,404.603z
	"/>
<path fill="#0B9BB6" d="M220.12,399.849l-6.479,13.909l-3.429-1.597l6.48-13.91L220.12,399.849z M218.176,394.258
	c-1.244,2.67,2.803,4.555,4.046,1.885C223.466,393.474,219.419,391.588,218.176,394.258"/>
<path fill="#0B9BB6" d="M227.215,420.082l3.378-7.251c0.981-2.105,0.575-4.244-1.617-5.266c-2.108-0.982-4.365,0.121-5.347,2.229
	l-3.299,7.081l-3.4-1.584l6.467-13.882l3.062,1.426l-0.652,1.988c2.046-0.721,3.779-0.77,5.522,0.041
	c3.259,1.52,4.733,5.182,2.704,9.536l-3.39,7.279L227.215,420.082z"/>
<path fill="#0B9BB6" d="M243.802,410.877l-6.48,13.909l-3.427-1.597l6.48-13.91L243.802,410.877z M241.857,405.287
	c-1.244,2.669,2.802,4.556,4.047,1.886C247.148,404.502,243.102,402.616,241.857,405.287"/>
<g>
</g>
<g>
</g>
<g>
</g>
<g>
</g>
<g>
</g>
<g>
</g>
</svg>
