<?xml version="1.0" encoding="utf-8"?>
<!-- Generator: Adobe Illustrator 16.0.0, SVG Export Plug-In . SVG Version: 6.00 Build 0)  -->
<!DOCTYPE svg PUBLIC "-//W3C//DTD SVG 1.1//EN" "http://www.w3.org/Graphics/SVG/1.1/DTD/svg11.dtd">
<svg version="1.1" id="Layer_1" xmlns="http://www.w3.org/2000/svg" xmlns:xlink="http://www.w3.org/1999/xlink" x="0px" y="0px"
	 width="266.114px" height="88.72px" viewBox="0 0 266.114 88.72" enable-background="new 0 0 266.114 88.72" xml:space="preserve">
<path fill="#D41C55" d="M22.997,0H0v58.537h22.997c20.488,0,29.52-14.968,29.269-29.77C52.015,14.3,43.067,0,22.997,0
	 M22.997,47.917H10.955V10.453h12.042c12.711,0,18.063,9.115,18.314,18.23C41.562,38.217,36.293,47.917,22.997,47.917"/>
<path fill="#D41C55" d="M56.488,5.687c0,7.944,12.042,7.944,12.042,0C68.53-2.258,56.488-2.258,56.488,5.687"/>
<rect x="57.408" y="17.143" fill="#D41C55" width="10.202" height="41.394"/>
<path fill="#D41C55" d="M106.913,50.643c6.774-3.095,8.697-10.286,8.697-15.388c0-4.516-1.171-8.613-4.349-12.209l4.6-5.854
	l-7.526-5.686l-4.097,5.185c-2.844-1.924-6.189-2.342-9.45-2.342c-11.54,0-20.906,8.028-20.906,20.906
	c0,12.879,8.028,20.74,20.906,20.74c5.101,0,10.453,2.592,10.453,8.278c0,5.687-4.599,8.864-10.453,8.864
	C88.934,73.136,84,69.625,84,64.272H73.882c0,11.123,8.948,18.398,20.906,18.398s20.655-7.025,20.655-18.398
	C115.443,59.004,113.771,54.07,106.913,50.643 M94.788,46.711C88.85,46.711,84,42.446,84,35.254c0-7.191,4.85-11.624,10.788-11.624
	c5.854,0,10.704,4.516,10.704,11.624C105.492,42.363,100.642,46.711,94.788,46.711"/>
<rect x="120.753" y="17.143" fill="#D41C55" width="10.201" height="41.394"/>
<path fill="#D41C55" d="M131.875,5.687c0-7.944-12.042-7.944-12.042,0C119.833,13.63,131.875,13.63,131.875,5.687"/>
<path fill="#D41C55" d="M184.875,50.398l-8.098-7.9c-2.962,2.963-6.814,4.049-10.665,4.049c-7.505,0-13.825-4.938-13.825-14.22
	c0-8.493,5.926-14.418,14.023-14.418c3.357,0,6.912,1.284,9.775,3.851l7.604-7.998c-5.332-5.234-10.665-7.209-17.578-7.209
	c-14.121,0-25.873,8.492-25.873,25.774c0,17.281,11.752,25.773,25.873,25.773C173.321,58.101,179.246,55.928,184.875,50.398"/>
<path fill="#D41C55" d="M206.296,21.339c-11.742,0-19.07,8.188-19.07,18.141c0,10.023,7.18,18.14,19.146,18.14
	c11.968,0,19.222-8.117,19.222-18.14C225.593,29.527,218.039,21.339,206.296,21.339 M206.372,49.714
	c-6.655,0-10.022-4.941-10.022-10.234c0-5.224,3.441-10.306,10.022-10.306c6.134,0,10.022,5.082,10.022,10.306
	C216.394,44.773,213.029,49.714,206.372,49.714"/>
<path fill="#D41C55" d="M250.64,20.935c-4.59,0-8.291,1.793-11.992,5.309l-0.592-4.806h-8.069v35.434h8.956V38.796
	c0-5.38,3.777-9.899,9.328-9.899c5.775,0,8.811,4.089,8.811,9.468v18.506h9.032V38.293C266.114,27.176,259.228,20.935,250.64,20.935
	"/>
<polygon fill="#D41C55" points="225.95,71.138 218.042,81.68 217.14,81.68 209.408,71.103 209.408,88.755 204.831,88.755 
	204.831,64.48 210.101,64.48 217.695,74.919 225.29,64.48 230.527,64.48 230.527,88.755 225.95,88.755 "/>
<path fill="#D41C55" d="M238.791,66.802c0,3.296-4.994,3.296-4.994,0C233.796,63.508,238.791,63.508,238.791,66.802 M234.177,88.72
	h4.23V71.555h-4.23V88.72z"/>
<path fill="#D41C55" d="M254.466,88.72v-8.948c0-2.601-1.422-4.577-4.125-4.577c-2.602,0-4.371,2.185-4.371,4.786v8.739h-4.195
	V71.59h3.777l0.279,2.322c1.734-1.699,3.467-2.566,5.618-2.566c4.022,0,7.245,3.018,7.245,8.393v8.981H254.466z"/>
<path fill="#D41C55" d="M266.611,66.802c0,3.296-4.996,3.296-4.996,0C261.615,63.508,266.611,63.508,266.611,66.802 M261.996,88.72
	h4.233V71.555h-4.233V88.72z"/>
<rect x="-708.045" y="-322.176" fill="none" width="1600" height="1200"/>
<g>
</g>
<g>
</g>
<g>
</g>
<g>
</g>
<g>
</g>
<g>
</g>
</svg>
