<?xml version="1.0" encoding="utf-8"?>
<!-- Generator: Adobe Illustrator 16.0.0, SVG Export Plug-In . SVG Version: 6.00 Build 0)  -->
<!DOCTYPE svg PUBLIC "-//W3C//DTD SVG 1.1//EN" "http://www.w3.org/Graphics/SVG/1.1/DTD/svg11.dtd">
<svg version="1.1" id="Layer_1" xmlns="http://www.w3.org/2000/svg" xmlns:xlink="http://www.w3.org/1999/xlink" x="0px" y="0px"
	 width="212.938px" height="120.044px" viewBox="0 0 212.938 120.044" enable-background="new 0 0 212.938 120.044"
	 xml:space="preserve">
<path fill="#FFFFFF" d="M103.241,98.265h-7.139v-0.986c0-1.247,1.543-1.491,2.495-1.491c2.412,0,4.61-0.56,4.61-3.479
	c0-2.725-2.494-3.659-4.791-3.659c-2.117,0-4.414,1.05-4.431,3.478h2.15c0.017-1.033,1.182-1.607,2.313-1.607
	c1.477,0,2.61,0.59,2.61,1.838c0,1.329-1.592,1.478-2.462,1.478c-2.264,0-4.66,0.788-4.66,3.429v3.021h9.304V98.265z"/>
<path fill="#FFFFFF" d="M105.289,93.809v1.637c0,6.768,9.942,6.753,9.942,0v-1.637C115.231,87.055,105.289,87.039,105.289,93.809
	 M113.111,95.445c0,4.113-5.701,4.113-5.701,0v-1.637c0-4.097,5.701-4.049,5.701,0V95.445z"/>
<polygon fill="#FFFFFF" points="117.376,98.521 117.376,100.282 122.618,100.282 122.618,98.521 121.09,98.521 121.09,89.267 
	117.315,89.267 117.315,91.155 119.03,91.155 119.03,98.521 "/>
<polygon fill="#FFFFFF" points="132.861,88.844 124.461,88.844 124.461,90.901 130.033,90.901 125.359,100.282 127.843,100.282 
	132.974,89.986 "/>
<path fill="#FFFFFF" d="M144.452,89.004h-4.369v11.121h4.369c3.893,0,5.607-2.844,5.56-5.657
	C149.964,91.721,148.265,89.004,144.452,89.004 M144.452,98.106h-2.287v-7.117h2.287c2.415,0,3.431,1.732,3.479,3.464
	C147.979,96.264,146.978,98.106,144.452,98.106"/>
<rect x="152.474" y="89.004" fill="#FFFFFF" width="2.331" height="11.278"/>
<path fill="#FFFFFF" d="M167.994,98.816v-4.9h-4.982v1.959h2.973v2.062c-0.914,0.73-1.71,0.929-2.624,0.929
	c-2.89,0-4.004-1.977-4.004-3.886c0-2.393,1.513-4.287,4.004-4.287c1.014,0,2.176,0.416,2.956,1.164l1.363-1.396
	c-1.197-1.18-2.758-1.776-4.319-1.776c-4.104,0-6.146,3.022-6.146,6.296c0,3.056,1.777,5.931,6.146,5.931
	C165.402,100.91,166.848,100.128,167.994,98.816"/>
<rect x="170.813" y="89.004" fill="#FFFFFF" width="2.33" height="11.563"/>
<polygon fill="#FFFFFF" points="175.717,90.986 179.384,90.986 179.384,100.566 181.564,100.566 181.564,90.986 185.233,90.986 
	185.233,89.004 175.717,89.004 "/>
<path fill="#FFFFFF" d="M191.462,88.611l-5.245,11.692h2.39l1.001-2.204h6.114l0.985,2.204h2.405l-5.245-11.692H191.462z
	 M190.494,96.045l2.171-4.979l2.173,4.979H190.494z"/>
<polygon fill="#FFFFFF" points="203.252,89.04 200.904,89.04 200.904,100.566 209.66,100.566 209.66,98.559 203.252,98.559 "/>
<path fill="#FFFFFF" d="M97.296,117.811c-2.788,0-3.868-1.948-3.884-3.819c-0.016-1.886,1.161-3.916,3.884-3.916
	c0.983,0,1.982,0.339,2.724,1.063l1.418-1.369c-1.16-1.145-2.61-1.725-4.142-1.725c-4.078,0-5.996,2.999-5.979,5.947
	c0.017,2.934,1.789,5.818,5.979,5.818c1.628,0,3.127-0.531,4.287-1.676l-1.45-1.466C99.392,117.408,98.28,117.811,97.296,117.811"/>
<path fill="#FFFFFF" d="M109.222,107.914c-4.022,0-5.982,3.075-5.982,6.133s1.895,5.997,5.982,5.997
	c4.087,0,5.931-3.006,5.965-6.014C115.22,110.989,113.225,107.914,109.222,107.914 M109.222,118.034
	c-2.742,0-3.772-2.043-3.822-3.955c-0.05-1.96,1.08-4.17,3.822-4.17c2.74,0,3.838,2.193,3.805,4.153
	C112.995,115.975,111.962,118.034,109.222,118.034"/>
<polygon fill="#FFFFFF" points="125,115.204 119.427,108.151 117.69,108.151 117.69,119.524 119.833,119.524 119.833,111.855 
	125.813,119.542 125.813,119.524 127.146,119.524 127.146,108.135 125,108.135 "/>
<polygon fill="#FFFFFF" points="130.239,119.53 132.354,119.53 132.354,115.38 137.977,115.38 137.977,113.426 132.354,113.426 
	132.354,110.365 138.297,110.365 138.297,108.331 130.239,108.331 "/>
<polygon fill="#FFFFFF" points="140.773,119.55 149.352,119.55 149.352,117.422 142.918,117.422 142.918,114.835 149.122,114.835 
	149.122,112.821 142.918,112.821 142.918,110.186 149.352,110.186 149.352,108.091 140.773,108.091 "/>
<path fill="#FFFFFF" d="M161.549,112.022c0-1.934-1.392-3.692-4.029-3.708c-1.773,0-3.548-0.017-5.322-0.017v11.206h2.109v-3.741
	h2.03l3.262,3.741h2.51v-0.145l-3.389-3.819C160.846,115.108,161.549,113.557,161.549,112.022 M154.307,113.861v-3.581h3.213
	c1.328,0,1.919,0.896,1.919,1.79c0,0.896-0.576,1.791-1.919,1.791H154.307z"/>
<polygon fill="#FFFFFF" points="164,119.569 172.616,119.569 172.616,117.433 166.153,117.433 166.153,114.833 172.385,114.833 
	172.385,112.812 166.153,112.812 166.153,110.164 172.616,110.164 172.616,108.06 164,108.06 "/>
<polygon fill="#FFFFFF" points="183.127,115.255 177.659,108.334 175.953,108.334 175.953,119.496 178.056,119.496 178.056,111.971 
	183.924,119.514 183.924,119.496 185.232,119.496 185.232,108.319 183.127,108.319 "/>
<path fill="#FFFFFF" d="M193.848,117.795c-2.761,0-3.83-1.931-3.846-3.783c-0.016-1.866,1.149-3.878,3.846-3.878
	c0.974,0,1.964,0.335,2.698,1.052l1.403-1.354c-1.148-1.134-2.585-1.709-4.102-1.709c-4.036,0-5.937,2.969-5.92,5.89
	c0.015,2.906,1.771,5.761,5.92,5.761c1.612,0,3.096-0.526,4.246-1.658l-1.437-1.452
	C195.923,117.396,194.822,117.795,193.848,117.795"/>
<polygon fill="#FFFFFF" points="200.673,119.364 209.089,119.364 209.089,117.277 202.777,117.277 202.777,114.74 208.865,114.74 
	208.865,112.764 202.777,112.764 202.777,110.178 209.089,110.178 209.089,108.122 200.673,108.122 "/>
<path fill="#FFFFFF" d="M17.983,32.897H0V78.67h17.983c16.021,0,23.083-11.703,22.887-23.278
	C40.673,44.078,33.677,32.897,17.983,32.897 M17.983,70.365H8.566V41.07h9.417c9.939,0,14.125,7.128,14.32,14.256
	C32.5,62.78,28.379,70.365,17.983,70.365"/>
<path fill="#FFFFFF" d="M44.172,37.343c0,6.212,9.417,6.212,9.417,0C53.588,31.131,44.172,31.131,44.172,37.343"/>
<rect x="44.891" y="46.302" fill="#FFFFFF" width="7.978" height="32.368"/>
<path fill="#FFFFFF" d="M83.601,72.496c5.297-2.42,6.801-8.042,6.801-12.031c0-3.532-0.915-6.735-3.4-9.548l3.596-4.577
	l-5.885-4.446l-3.204,4.054c-2.223-1.504-4.838-1.831-7.389-1.831c-9.024,0-16.348,6.278-16.348,16.348s6.277,16.217,16.348,16.217
	c3.989,0,8.173,2.026,8.173,6.474c0,4.445-3.596,6.931-8.173,6.931c-4.578,0-8.436-2.746-8.436-6.931h-7.913
	c0,8.697,6.997,14.386,16.348,14.386c9.351,0,16.151-5.493,16.151-14.386C90.271,79.035,88.964,75.178,83.601,72.496 M74.12,69.423
	c-4.643,0-8.436-3.334-8.436-8.958s3.792-9.089,8.436-9.089c4.577,0,8.37,3.531,8.37,9.089S78.697,69.423,74.12,69.423"/>
<rect x="94.424" y="46.302" fill="#FFFFFF" width="7.978" height="32.368"/>
<path fill="#FFFFFF" d="M103.121,37.343c0-6.212-9.417-6.212-9.417,0C93.704,43.555,103.121,43.555,103.121,37.343"/>
<path fill="#FFFFFF" d="M144.563,72.305l-6.332-6.176c-2.315,2.315-5.327,3.164-8.34,3.164c-5.867,0-10.811-3.86-10.811-11.118
	c0-6.641,4.635-11.274,10.967-11.274c2.625,0,5.404,1.003,7.643,3.011l5.947-6.255c-4.17-4.093-8.34-5.637-13.746-5.637
	c-11.041,0-20.229,6.642-20.229,20.154c0,13.514,9.188,20.153,20.229,20.153C135.53,78.328,140.162,76.63,144.563,72.305"/>
<path fill="#FFFFFF" d="M161.315,49.583c-9.182,0-14.913,6.403-14.913,14.186c0,7.838,5.614,14.184,14.971,14.184
	c9.358,0,15.032-6.346,15.032-14.184C176.405,55.986,170.497,49.583,161.315,49.583 M161.373,71.771
	c-5.204,0-7.836-3.863-7.836-8.002c0-4.085,2.69-8.059,7.836-8.059c4.797,0,7.838,3.974,7.838,8.059
	C169.21,67.907,166.58,71.771,161.373,71.771"/>
<path fill="#FFFFFF" d="M195.99,49.267c-3.588,0-6.484,1.402-9.378,4.15l-0.463-3.758h-6.31v27.707h7.004V63.233
	c0-4.207,2.953-7.74,7.294-7.74c4.516,0,6.889,3.197,6.889,7.403v14.47h7.063V62.84C208.088,54.147,202.705,49.267,195.99,49.267"/>
<polygon fill="#FFFFFF" points="155.605,14.901 148.792,14.901 153.009,2.734 158.201,2.734 "/>
<polygon fill="#FFFFFF" points="158.687,34.585 164.366,34.585 164.366,9.277 158.471,9.277 158.471,2.789 171.451,2.789 
	171.451,34.585 176.695,34.585 176.695,40.642 158.687,40.642 "/>
<polygon fill="#FFFFFF" points="180.858,40.641 196.324,9.602 177.884,9.602 177.884,2.788 205.678,2.788 206.058,6.573 
	189.077,40.641 "/>
<g>
</g>
<g>
</g>
<g>
</g>
<g>
</g>
<g>
</g>
<g>
</g>
</svg>
