<?xml version="1.0" encoding="utf-8"?>
<!-- Generator: Adobe Illustrator 16.0.0, SVG Export Plug-In . SVG Version: 6.00 Build 0)  -->
<!DOCTYPE svg PUBLIC "-//W3C//DTD SVG 1.1//EN" "http://www.w3.org/Graphics/SVG/1.1/DTD/svg11.dtd">
<svg version="1.1" id="Layer_1" xmlns="http://www.w3.org/2000/svg" xmlns:xlink="http://www.w3.org/1999/xlink" x="0px" y="0px"
	 width="266.61px" height="92.931px" viewBox="0 0 266.61 92.931" enable-background="new 0 0 266.61 92.931" xml:space="preserve">
<path fill="#D41C55" d="M22.997,4.176H0v58.537h22.997c20.488,0,29.52-14.968,29.269-29.77C52.015,18.476,43.067,4.176,22.997,4.176
	 M22.997,52.093H10.955V14.629h12.042c12.711,0,18.063,9.115,18.314,18.23C41.562,42.393,36.293,52.093,22.997,52.093"/>
<path fill="#D41C55" d="M56.488,9.862c0,7.944,12.042,7.944,12.042,0C68.53,1.918,56.488,1.918,56.488,9.862"/>
<rect x="57.408" y="21.319" fill="#D41C55" width="10.202" height="41.394"/>
<path fill="#D41C55" d="M106.913,54.818c6.774-3.096,8.697-10.286,8.697-15.388c0-4.516-1.17-8.613-4.348-12.209l4.599-5.854
	l-7.526-5.686l-4.097,5.185c-2.844-1.924-6.189-2.342-9.45-2.342c-11.54,0-20.906,8.028-20.906,20.906
	c0,12.878,8.028,20.74,20.906,20.74c5.101,0,10.453,2.592,10.453,8.278s-4.599,8.864-10.453,8.864S84,73.801,84,68.448H73.882
	c0,11.123,8.948,18.397,20.906,18.397s20.655-7.024,20.655-18.397C115.443,63.18,113.771,58.246,106.913,54.818 M94.788,50.887
	C88.85,50.887,84,46.622,84,39.43c0-7.191,4.85-11.624,10.788-11.624c5.854,0,10.704,4.516,10.704,11.624
	C105.492,46.539,100.642,50.887,94.788,50.887"/>
<rect x="120.753" y="21.319" fill="#D41C55" width="10.202" height="41.394"/>
<path fill="#D41C55" d="M131.875,9.862c0-7.944-12.042-7.944-12.042,0C119.833,17.806,131.875,17.806,131.875,9.862"/>
<path fill="#D41C55" d="M184.875,54.574l-8.099-7.9c-2.961,2.963-6.813,4.049-10.664,4.049c-7.506,0-13.825-4.938-13.825-14.22
	c0-8.493,5.925-14.418,14.022-14.418c3.358,0,6.912,1.284,9.776,3.851l7.604-7.998c-5.332-5.234-10.666-7.209-17.578-7.209
	c-14.121,0-25.873,8.492-25.873,25.774c0,17.28,11.752,25.773,25.873,25.773C173.321,62.276,179.246,60.104,184.875,54.574"/>
<path fill="#D41C55" d="M206.297,25.515c-11.742,0-19.071,8.188-19.071,18.141c0,10.023,7.18,18.14,19.146,18.14
	s19.222-8.117,19.222-18.14C225.594,33.703,218.038,25.515,206.297,25.515 M206.372,53.89c-6.656,0-10.022-4.94-10.022-10.234
	c0-5.224,3.441-10.306,10.022-10.306c6.133,0,10.021,5.082,10.021,10.306C216.394,48.949,213.028,53.89,206.372,53.89"/>
<path fill="#D41C55" d="M250.641,25.11c-4.59,0-8.292,1.793-11.993,5.309l-0.592-4.806h-8.068v35.434h8.956V42.972
	c0-5.38,3.776-9.899,9.328-9.899c5.774,0,8.81,4.089,8.81,9.468v18.506h9.033V42.469C266.114,31.352,259.229,25.11,250.641,25.11"/>
<polygon fill="#D41C55" points="225.95,75.314 218.042,85.855 217.14,85.855 209.407,75.279 209.407,92.931 204.831,92.931 
	204.831,68.656 210.101,68.656 217.694,79.095 225.29,68.656 230.526,68.656 230.526,92.931 225.95,92.931 "/>
<path fill="#D41C55" d="M238.79,70.979c0,3.295-4.994,3.295-4.994,0S238.79,67.684,238.79,70.979 M234.178,92.896h4.229V75.73
	h-4.229V92.896z"/>
<path fill="#D41C55" d="M254.466,92.896v-8.949c0-2.601-1.422-4.576-4.125-4.576c-2.602,0-4.371,2.185-4.371,4.785v8.74h-4.195
	V75.766h3.778l0.278,2.322c1.734-1.699,3.467-2.566,5.619-2.566c4.022,0,7.245,3.019,7.245,8.394v8.981H254.466z"/>
<path fill="#D41C55" d="M266.61,70.979c0,3.295-4.996,3.295-4.996,0S266.61,67.684,266.61,70.979 M261.995,92.896h4.234V75.73
	h-4.234V92.896z"/>
<g>
</g>
<g>
</g>
<g>
</g>
<g>
</g>
<g>
</g>
<g>
</g>
</svg>
