<?xml version="1.0" encoding="utf-8"?>
<!-- Generator: Adobe Illustrator 16.0.0, SVG Export Plug-In . SVG Version: 6.00 Build 0)  -->
<!DOCTYPE svg PUBLIC "-//W3C//DTD SVG 1.1//EN" "http://www.w3.org/Graphics/SVG/1.1/DTD/svg11.dtd">
<svg version="1.1" id="Layer_1" xmlns="http://www.w3.org/2000/svg" xmlns:xlink="http://www.w3.org/1999/xlink" x="0px" y="0px"
	 width="214.546px" height="119.502px" viewBox="0 0 214.546 119.502" enable-background="new 0 0 214.546 119.502"
	 xml:space="preserve">
<path fill="#D41D54" d="M105.646,97.7h-7.306v-1.008c0-1.276,1.58-1.527,2.554-1.527c2.468,0,4.718-0.571,4.718-3.56
	c0-2.788-2.552-3.744-4.902-3.744c-2.166,0-4.518,1.074-4.535,3.559h2.201c0.017-1.058,1.209-1.646,2.367-1.646
	c1.512,0,2.67,0.605,2.67,1.881c0,1.36-1.629,1.512-2.519,1.512c-2.317,0-4.769,0.806-4.769,3.509v3.09h9.521V97.7z"/>
<path fill="#D41D54" d="M107.742,93.141v1.674c0,6.927,10.175,6.911,10.175,0v-1.674C117.917,86.23,107.742,86.213,107.742,93.141
	 M115.746,94.815c0,4.209-5.834,4.209-5.834,0v-1.674c0-4.193,5.834-4.143,5.834,0V94.815z"/>
<polygon fill="#D41D54" points="120.112,97.962 120.112,99.765 125.475,99.765 125.475,97.962 123.913,97.962 123.913,88.494 
	120.048,88.494 120.048,90.426 121.804,90.426 121.804,97.962 "/>
<polygon fill="#D41D54" points="135.956,88.06 127.361,88.06 127.361,90.167 133.063,90.167 128.28,99.766 130.822,99.766 
	136.073,89.23 "/>
<path fill="#D41D54" d="M147.817,88.225h-4.471v11.38h4.471c3.984,0,5.738-2.91,5.689-5.788
	C153.459,91.004,151.72,88.225,147.817,88.225 M147.817,97.539h-2.34v-7.283h2.34c2.472,0,3.512,1.772,3.561,3.544
	C151.427,95.653,150.403,97.539,147.817,97.539"/>
<rect x="156.026" y="88.225" fill="#D41D54" width="2.387" height="11.541"/>
<path fill="#D41D54" d="M171.909,98.265v-5.014h-5.1v2.005h3.043v2.108c-0.936,0.748-1.75,0.952-2.686,0.952
	c-2.958,0-4.098-2.023-4.098-3.977c0-2.448,1.548-4.386,4.098-4.386c1.037,0,2.227,0.425,3.025,1.19l1.394-1.428
	c-1.224-1.207-2.821-1.818-4.419-1.818c-4.199,0-6.29,3.093-6.29,6.442c0,3.127,1.819,6.068,6.29,6.068
	C169.257,100.407,170.735,99.608,171.909,98.265"/>
<rect x="174.794" y="88.224" fill="#D41D54" width="2.385" height="11.833"/>
<polygon fill="#D41D54" points="179.812,90.253 183.565,90.253 183.565,100.057 185.796,100.057 185.796,90.253 189.549,90.253 
	189.549,88.224 179.812,88.224 "/>
<path fill="#D41D54" d="M195.925,87.823l-5.367,11.965h2.444l1.024-2.256h6.256l1.009,2.256h2.462l-5.367-11.965H195.925z
	 M194.933,95.429l2.223-5.093l2.222,5.093H194.933z"/>
<polygon fill="#D41D54" points="207.989,88.261 205.585,88.261 205.585,100.057 214.546,100.057 214.546,98.001 207.989,98.001 "/>
<path fill="#D41D54" d="M99.563,117.703c-2.853,0-3.957-1.995-3.975-3.909c-0.016-1.929,1.188-4.008,3.975-4.008
	c1.006,0,2.028,0.347,2.787,1.089l1.451-1.402c-1.188-1.171-2.671-1.765-4.238-1.765c-4.173,0-6.136,3.068-6.119,6.086
	c0.018,3.002,1.832,5.954,6.119,5.954c1.666,0,3.2-0.544,4.387-1.715l-1.483-1.501C101.708,117.291,100.569,117.703,99.563,117.703"
	/>
<path fill="#D41D54" d="M111.767,107.576c-4.115,0-6.121,3.146-6.121,6.275c0,3.128,1.939,6.137,6.121,6.137
	c4.183,0,6.07-3.077,6.104-6.154C117.905,110.722,115.864,107.576,111.767,107.576 M111.767,117.931
	c-2.805,0-3.859-2.091-3.91-4.047c-0.051-2.006,1.105-4.267,3.91-4.267s3.928,2.244,3.894,4.25
	C115.627,115.823,114.571,117.931,111.767,117.931"/>
<polygon fill="#D41D54" points="127.913,115.034 122.21,107.818 120.432,107.818 120.432,119.457 122.626,119.457 122.626,111.609 
	128.745,119.474 128.745,119.457 130.108,119.457 130.108,107.801 127.913,107.801 "/>
<polygon fill="#D41D54" points="133.274,119.462 135.438,119.462 135.438,115.215 141.192,115.215 141.192,113.215 135.438,113.215 
	135.438,110.083 141.521,110.083 141.521,108.001 133.274,108.001 "/>
<polygon fill="#D41D54" points="144.054,119.482 152.832,119.482 152.832,117.304 146.248,117.304 146.248,114.658 152.597,114.658 
	152.597,112.597 146.248,112.597 146.248,109.9 152.832,109.9 152.832,107.756 144.054,107.756 "/>
<path fill="#D41D54" d="M165.313,111.78c0-1.98-1.424-3.779-4.123-3.795c-1.814,0-3.631-0.017-5.446-0.017v11.468h2.159v-3.828
	h2.078l3.336,3.828h2.568v-0.148l-3.468-3.909C164.595,114.937,165.313,113.35,165.313,111.78 M157.903,113.661v-3.664h3.287
	c1.359,0,1.964,0.916,1.964,1.832s-0.589,1.832-1.964,1.832H157.903z"/>
<polygon fill="#D41D54" points="167.821,119.502 176.638,119.502 176.638,117.315 170.024,117.315 170.024,114.656 176.403,114.656 
	176.403,112.586 170.024,112.586 170.024,109.877 176.638,109.877 176.638,107.724 167.821,107.724 "/>
<polygon fill="#D41D54" points="187.395,115.087 181.798,108.006 180.053,108.006 180.053,119.427 182.206,119.427 182.206,111.726 
	188.21,119.444 188.21,119.427 189.548,119.427 189.548,107.99 187.395,107.99 "/>
<path fill="#D41D54" d="M198.366,117.686c-2.826,0-3.92-1.976-3.936-3.871c-0.016-1.91,1.176-3.968,3.936-3.968
	c0.996,0,2.01,0.343,2.76,1.077l1.438-1.388c-1.176-1.159-2.646-1.747-4.197-1.747c-4.132,0-6.076,3.037-6.059,6.026
	c0.016,2.973,1.813,5.896,6.059,5.896c1.648,0,3.168-0.539,4.344-1.698l-1.47-1.486
	C200.489,117.278,199.362,117.686,198.366,117.686"/>
<polygon fill="#D41D54" points="205.35,119.292 213.962,119.292 213.962,117.157 207.503,117.157 207.503,114.56 213.731,114.56 
	213.731,112.538 207.503,112.538 207.503,109.892 213.962,109.892 213.962,107.789 205.35,107.789 "/>
<path fill="#D41D54" d="M18.402,30.81H0v46.84h18.402c16.394,0,23.621-11.977,23.42-23.821C41.621,42.252,34.462,30.81,18.402,30.81
	 M18.402,69.152H8.766V39.174h9.636c10.171,0,14.454,7.294,14.654,14.588C33.257,61.39,29.041,69.152,18.402,69.152"/>
<path fill="#D41D54" d="M45.201,35.36c0,6.357,9.636,6.357,9.636,0S45.201,29.003,45.201,35.36"/>
<rect x="45.937" y="44.527" fill="#D41D54" width="8.164" height="33.123"/>
<path fill="#D41D54" d="M85.55,71.332c5.42-2.476,6.959-8.23,6.959-12.312c0-3.614-0.937-6.892-3.479-9.77l3.68-4.684l-6.022-4.55
	l-3.278,4.149c-2.274-1.539-4.951-1.874-7.562-1.874c-9.233,0-16.729,6.424-16.729,16.729c0,10.305,6.424,16.595,16.729,16.595
	c4.082,0,8.365,2.074,8.365,6.624c0,4.55-3.681,7.093-8.365,7.093c-4.684,0-8.631-2.81-8.631-7.093h-8.098
	c0,8.9,7.16,14.722,16.729,14.722c9.569,0,16.528-5.622,16.528-14.722C92.375,78.023,91.037,74.075,85.55,71.332 M75.847,68.187
	c-4.75,0-8.631-3.413-8.631-9.167c0-5.755,3.881-9.301,8.631-9.301c4.685,0,8.565,3.613,8.565,9.301S80.531,68.187,75.847,68.187"/>
<rect x="96.624" y="44.527" fill="#D41D54" width="8.164" height="33.123"/>
<path fill="#D41D54" d="M105.524,35.36c0-6.357-9.637-6.357-9.637,0S105.524,41.717,105.524,35.36"/>
<path fill="#D41D54" d="M147.933,71.137l-6.48-6.321c-2.369,2.37-5.451,3.239-8.533,3.239c-6.006,0-11.063-3.951-11.063-11.378
	c0-6.796,4.741-11.537,11.221-11.537c2.687,0,5.531,1.027,7.822,3.082l6.085-6.401c-4.267-4.188-8.534-5.768-14.065-5.768
	c-11.299,0-20.702,6.796-20.702,20.624c0,13.828,9.403,20.624,20.702,20.624C138.688,77.301,143.429,75.562,147.933,71.137"/>
<path fill="#D41D54" d="M165.073,47.885c-9.396,0-15.26,6.552-15.26,14.516c0,8.02,5.746,14.515,15.32,14.515
	c9.575,0,15.381-6.495,15.381-14.515C180.515,54.437,174.47,47.885,165.073,47.885 M165.134,70.59c-5.326,0-8.02-3.954-8.02-8.189
	c0-4.18,2.754-8.246,8.02-8.246c4.907,0,8.02,4.066,8.02,8.246C173.153,66.636,170.461,70.59,165.134,70.59"/>
<path fill="#D41D54" d="M200.557,47.562c-3.672,0-6.636,1.435-9.597,4.247l-0.473-3.845h-6.457v28.353h7.168V61.854
	c0-4.305,3.021-7.921,7.463-7.921c4.621,0,7.049,3.272,7.049,7.576v14.808h7.228V61.451
	C212.938,52.556,207.429,47.562,200.557,47.562"/>
<polygon fill="#D41D54" points="159.231,12.395 152.259,12.395 156.575,-0.056 161.888,-0.056 "/>
<polygon fill="#D41D54" points="162.386,32.537 168.195,32.537 168.195,6.64 162.164,6.64 162.164,0 175.445,0 175.445,32.537 
	180.812,32.537 180.812,38.735 162.386,38.735 "/>
<polygon fill="#D41D54" points="185.072,38.734 200.898,6.972 182.029,6.972 182.029,0 210.472,0 210.859,3.873 193.483,38.734 "/>
<rect x="-748.212" y="-282.473" fill="none" width="1600" height="1223.52"/>
<g>
</g>
<g>
</g>
<g>
</g>
<g>
</g>
<g>
</g>
<g>
</g>
</svg>
